<svg width="1662" height="1803" viewBox="0 0 1662 1803" fill="none" xmlns="http://www.w3.org/2000/svg">
<path d="M770.246 1372.89C853.921 1412.57 933.435 1411.36 1004.89 1383.31C1135.63 1324.39 1245.66 1169.1 1287.71 1016.7C1308.69 940.643 1312.31 866.738 1294.15 807.102C1276.16 748.05 1236.79 702.579 1169.93 681.808C1142.91 673.413 1123.18 661.47 1111.14 648.282C1099.4 635.412 1093.23 618.905 1100.38 604.091C1107.42 589.502 1124.28 583.172 1143.33 583.245C1162.89 583.321 1188.05 589.875 1217.91 604.825C1283.94 637.875 1322.16 698.487 1338 771.008C1353.79 843.325 1347.55 928.13 1324.45 1011.89C1278.42 1178.76 1163.96 1346.35 1014.22 1405.43L1014.22 1405.44L1014.21 1405.44C934.351 1441.26 846.021 1444.17 759.082 1394.16M759.082 1394.16L759.081 1394.16C759.081 1394.16 759.082 1394.16 759.082 1394.16Z" fill="#AF70FF" stroke="#070C8D" stroke-width="24" stroke-linecap="round"/>
<path d="M1212.92 614.911C1460.96 739.077 1300.1 1279.52 1009.93 1393.73C932.956 1428.34 848.477 1431.04 765.039 1382.88C765.038 1382.88 765.037 1382.88 765.036 1382.88C661.691 1333.71 765.038 1382.88 765.038 1382.88C765.038 1382.88 765.038 1382.88 765.039 1382.88C852.054 1424.28 935.272 1423.11 1009.93 1393.73C1280.05 1272.27 1457.76 757.901 1173.86 669.704C1071.11 637.783 1097.46 557.115 1212.92 614.911Z" fill="#AF70FF" stroke="#AF70FF" stroke-width="31" stroke-linecap="round"/>
<path d="M1212.92 614.911C1460.96 739.077 1300.1 1279.52 1009.93 1393.73C932.956 1428.34 848.477 1431.04 765.039 1382.88C765.038 1382.88 765.037 1382.88 765.036 1382.88C661.691 1333.71 765.038 1382.88 765.038 1382.88C765.038 1382.88 765.038 1382.88 765.039 1382.88C852.054 1424.28 935.272 1423.11 1009.93 1393.73C1280.05 1272.27 1457.76 757.901 1173.86 669.704C1071.11 637.783 1097.46 557.115 1212.92 614.911Z" fill="#AF70FF" stroke="#AF70FF" stroke-width="31" stroke-linecap="round"/>
<mask id="mask0_65_173" style="mask-type:alpha" maskUnits="userSpaceOnUse" x="1050" y="431" width="373" height="428">
<path d="M1050.57 661.038L1212.16 431.578L1398.5 660.442L1223.92 754L1050.57 661.038Z" fill="#070C8D"/>
<path d="M1275.98 794.37L1371.92 752.047L1422.36 858.477L1277.95 850.556L1275.98 794.37Z" fill="#070C8D"/>
</mask>
<g mask="url(#mask0_65_173)">
<path d="M1212.81 614.627C1460.86 738.793 1299.99 1279.24 1009.82 1393.45C932.849 1428.06 848.371 1430.76 764.932 1382.6C764.932 1382.6 764.931 1382.6 764.93 1382.6C661.584 1333.43 764.931 1382.6 764.931 1382.6C764.932 1382.6 764.932 1382.6 764.932 1382.6C851.947 1424 935.165 1422.83 1009.82 1393.45C1279.94 1271.99 1457.65 757.617 1173.76 669.419C1071.01 637.498 1097.35 556.831 1212.81 614.627Z" fill="#070C8D" stroke="#070C8D" stroke-width="31" stroke-linecap="round"/>
</g>
<ellipse cx="10.4911" cy="10.4996" rx="10.4911" ry="10.4996" transform="matrix(-0.938705 -0.344721 -0.344721 0.938705 1321.31 979.838)" fill="#070C8D"/>
<ellipse cx="7.75658" cy="7.76288" rx="7.75658" ry="7.76288" transform="matrix(-0.938705 -0.344721 -0.344721 0.938705 1304.46 1066.81)" fill="#070C8D"/>
<ellipse cx="7.75658" cy="7.76288" rx="7.75658" ry="7.76288" transform="matrix(-0.938705 -0.344721 -0.344721 0.938705 1236.29 1201.59)" fill="#070C8D"/>
<ellipse cx="7.75658" cy="7.76288" rx="7.75658" ry="7.76288" transform="matrix(-0.938705 -0.344721 -0.344721 0.938705 1135.14 1307.44)" fill="#070C8D"/>
<ellipse cx="7.75658" cy="7.76288" rx="7.75658" ry="7.76288" transform="matrix(-0.938705 -0.344721 -0.344721 0.938705 961.931 1405.79)" fill="#070C8D"/>
<path d="M1040.17 1367.06C1041.14 1368.55 1042.39 1369.84 1043.86 1370.85C1045.32 1371.86 1046.97 1372.57 1048.71 1372.94C1050.46 1373.32 1052.25 1373.34 1054 1373.02C1055.76 1372.69 1057.43 1372.03 1058.92 1371.06C1060.41 1370.09 1061.7 1368.83 1062.71 1367.37C1063.72 1365.9 1064.44 1364.25 1064.81 1362.5C1065.18 1360.76 1065.21 1358.96 1064.88 1357.21C1064.56 1355.46 1063.9 1353.79 1062.93 1352.29L1051.55 1359.68L1040.17 1367.06Z" fill="#070C8D"/>
<path d="M1011.83 1405.96C1011.04 1403.93 1009.85 1402.07 1008.33 1400.5C1006.82 1398.93 1005.01 1397.67 1003.01 1396.79C1001.01 1395.92 998.859 1395.45 996.676 1395.4C994.493 1395.36 992.323 1395.75 990.29 1396.55C988.257 1397.35 986.401 1398.54 984.827 1400.05C983.253 1401.57 981.993 1403.38 981.118 1405.38C980.243 1407.38 979.771 1409.53 979.729 1411.72C979.686 1413.9 980.073 1416.07 980.869 1418.11L996.35 1412.04L1011.83 1405.96Z" fill="#070C8D"/>
<path d="M1190.92 1271.14C1189.61 1269.93 1188.07 1269 1186.4 1268.39C1184.73 1267.78 1182.95 1267.5 1181.17 1267.58C1179.4 1267.66 1177.65 1268.08 1176.03 1268.83C1174.42 1269.58 1172.97 1270.65 1171.76 1271.96C1170.56 1273.27 1169.62 1274.81 1169.01 1276.48C1168.4 1278.16 1168.13 1279.93 1168.2 1281.71C1168.28 1283.49 1168.7 1285.24 1169.45 1286.86C1170.2 1288.47 1171.26 1289.92 1172.57 1291.13L1181.75 1281.13L1190.92 1271.14Z" fill="#070C8D"/>
<ellipse cx="13.2254" cy="13.2361" rx="13.2254" ry="13.2361" transform="matrix(-0.938705 -0.344721 -0.344721 0.938705 1288.69 1107.02)" fill="#070C8D"/>
<path d="M1350.91 892.768C1342.32 891.946 1333.75 894.508 1327.01 899.909C1320.28 905.31 1315.92 913.124 1314.85 921.69C1313.78 930.257 1316.1 938.9 1321.3 945.783C1326.5 952.667 1334.18 957.247 1342.71 958.551L1347.73 925.774L1350.91 892.768Z" fill="#070C8D"/>
<rect x="1286.78" y="1027.78" width="5.38085" height="30.055" transform="rotate(-69.8352 1286.78 1027.78)" fill="#070C8D"/>
<rect width="5.3807" height="23.3208" transform="matrix(0.509155 -0.860675 0.860527 0.509404 1227.26 1165.36)" fill="#070C8D"/>
<rect width="5.38015" height="26.1616" transform="matrix(0.69099 -0.722864 0.722453 0.69142 1132.69 1293.17)" fill="#070C8D"/>
<path d="M825.452 1277.82C821.152 1303.66 820.91 1322.49 823.301 1337.77C825.681 1352.98 830.709 1364.91 837.314 1376.97C840.38 1382.57 843.812 1388.23 847.471 1394.27C858.97 1413.23 872.704 1435.88 884.336 1471.97C897.1 1461.19 909.251 1452.9 920.507 1445.35C921.253 1444.85 921.995 1444.35 922.732 1443.86C934.458 1436 945.069 1428.89 954.597 1420.32C974.582 1402.35 990.007 1377.78 998.581 1326.25C1007.2 1274.49 1006.51 1215.42 997.52 1167.69C993.022 1143.81 986.486 1123 978.155 1107.42C969.79 1091.78 959.983 1082.06 949.129 1079.02C938.275 1075.98 926.249 1079.6 913.653 1089.38C901.109 1099.11 888.537 1114.58 876.845 1133.93C853.472 1172.61 834.066 1226.06 825.452 1277.82Z" fill="#AF70FF" stroke="#070C8D" stroke-width="8"/>
<path d="M854.123 1465.22C854.123 1435.77 881.605 1411.01 916.665 1411.01C951.726 1411.01 979.207 1435.77 979.207 1465.22C979.207 1472.63 977.501 1478.04 974.69 1482.1C971.871 1486.17 967.704 1489.22 962.202 1491.47C950.987 1496.06 935.111 1497.01 916.665 1497.01C898.22 1497.01 882.344 1496.06 871.128 1491.47C865.626 1489.22 861.46 1486.17 858.641 1482.1C855.83 1478.04 854.123 1472.63 854.123 1465.22Z" fill="#AF70FF" stroke="#070C8D" stroke-width="8"/>
<path d="M683.34 1290.64C686.49 1316.64 685.898 1335.47 682.832 1350.62C679.78 1365.71 674.228 1377.41 667.094 1389.17C663.783 1394.63 660.103 1400.13 656.18 1406C643.853 1424.43 629.127 1446.45 615.907 1481.99C603.634 1470.65 591.862 1461.84 580.952 1453.79C580.229 1453.26 579.51 1452.73 578.795 1452.2C567.43 1443.83 557.144 1436.25 548.006 1427.27C528.836 1408.43 514.515 1383.2 508.234 1331.35C501.923 1279.26 505.224 1220.28 516.323 1172.99C521.876 1149.33 529.328 1128.83 538.341 1113.64C547.392 1098.38 557.62 1089.1 568.598 1086.55C579.576 1084 591.43 1088.14 603.58 1098.47C615.68 1108.76 627.554 1124.76 638.377 1144.61C660.012 1184.29 677.03 1238.55 683.34 1290.64Z" fill="#AF70FF" stroke="#070C8D" stroke-width="8"/>
<path d="M541.897 1465.22C541.897 1435.77 569.378 1411.01 604.439 1411.01C639.499 1411.01 666.981 1435.77 666.981 1465.22C666.981 1472.63 665.274 1478.04 662.463 1482.1C659.644 1486.17 655.478 1489.22 649.976 1491.47C638.76 1496.06 622.884 1497.01 604.439 1497.01C585.993 1497.01 570.117 1496.06 558.902 1491.47C553.4 1489.22 549.233 1486.17 546.414 1482.1C543.603 1478.04 541.897 1472.63 541.897 1465.22Z" fill="#AF70FF" stroke="#070C8D" stroke-width="8"/>
<path d="M604.438 1446.95C604.438 1414.8 634.23 1388.74 670.98 1388.74C707.73 1388.74 737.522 1414.8 737.522 1446.95C737.522 1479.09 707.73 1482.74 670.98 1482.74C634.23 1482.74 604.438 1479.09 604.438 1446.95Z" fill="#AF70FF"/>
<path d="M798.278 1451.55C798.278 1419.4 828.069 1393.34 864.82 1393.34C901.57 1393.34 931.362 1419.4 931.362 1451.55C931.362 1483.7 901.57 1487.34 864.82 1487.34C828.069 1487.34 798.278 1483.7 798.278 1451.55Z" fill="#AF70FF"/>
<path d="M604.438 1497.01C584.356 1497.01 568.077 1493.53 568.077 1462.74C568.077 1447.87 571.775 1437.96 575.345 1430.82" stroke="#070C8D" stroke-width="8"/>
<path d="M637.082 1495.05C617.001 1495.05 598.722 1492.62 598.722 1462.28C598.722 1447.63 602.42 1437.86 605.99 1430.82" stroke="#070C8D" stroke-width="8"/>
<path d="M979.207 1464.26C979.207 1434.81 951.725 1410.05 916.665 1410.05C881.604 1410.05 854.123 1434.81 854.123 1464.26C854.123 1471.67 855.829 1477.08 858.64 1481.14C861.459 1485.21 865.626 1488.26 871.128 1490.51C882.344 1495.1 898.219 1496.05 916.665 1496.05C935.11 1496.05 950.986 1495.1 962.202 1490.51C967.704 1488.26 971.87 1485.21 974.689 1481.14C977.5 1477.08 979.207 1471.67 979.207 1464.26Z" fill="#AF70FF" stroke="#070C8D" stroke-width="8"/>
<path d="M916.666 1445.99C916.666 1413.84 886.874 1387.78 850.124 1387.78C813.374 1387.78 783.582 1413.84 783.582 1445.99C783.582 1478.14 813.374 1481.78 850.124 1481.78C886.874 1481.78 916.666 1478.14 916.666 1445.99Z" fill="#AF70FF"/>
<path d="M916.666 1496.05C936.747 1496.05 953.026 1492.57 953.026 1461.79C953.026 1446.92 949.329 1437 945.758 1429.86" stroke="#070C8D" stroke-width="8"/>
<path d="M886.164 1495.05C906.245 1495.05 922.524 1492.62 922.524 1462.28C922.524 1447.63 918.827 1437.86 915.256 1430.82" stroke="#070C8D" stroke-width="8"/>
<path d="M611.807 508.963C628.158 495.669 671.891 488.184 679.984 484.325C623.807 484.325 600.401 456.626 520.926 388.293C581.924 489.755 550.766 436.969 611.807 508.963Z" fill="#070C8D"/>
<path d="M613.358 511.516C580.107 511.516 592.811 546.575 538.366 575.612C394.997 539.316 448.779 196.582 613.358 511.516Z" fill="#AF70FF" stroke="#070C8D" stroke-width="7"/>
<path d="M895.427 488.759C879.075 475.465 835.342 467.98 827.249 464.121C883.427 464.121 906.832 436.422 986.308 368.089C925.31 469.551 956.468 416.765 895.427 488.759Z" fill="#070C8D"/>
<path d="M893.875 491.312C927.126 491.312 914.423 526.371 968.868 555.408C1112.24 519.111 1058.45 176.378 893.875 491.312Z" fill="#AF70FF" stroke="#070C8D" stroke-width="7"/>
<path d="M965.011 435.906C946.527 460.338 934.267 479.871 931.876 515.834C902.332 561.459 796.753 549.008 965.011 435.906Z" fill="#070C8D"/>
<path d="M970.494 497.506C956.86 507.367 945.786 513.587 924.008 511.707C898.203 526.835 913.065 597.783 970.494 497.506Z" fill="#070C8D"/>
<path d="M536.209 447.176C554.693 471.607 566.954 491.14 569.345 527.103C598.888 572.729 704.468 560.277 536.209 447.176Z" fill="#070C8D"/>
<path d="M530.728 508.775C544.363 518.636 555.437 524.857 577.215 522.976C603.02 538.105 588.157 609.052 530.728 508.775Z" fill="#070C8D"/>
<path d="M1010.85 666.699C1010.85 774.227 887.812 756.925 761.563 848.973C633.759 783.926 512.281 774.227 512.281 666.699C512.281 559.17 623.889 433.001 761.563 433.001C899.238 433.001 1010.85 559.17 1010.85 666.699Z" fill="#AF70FF"/>
<path d="M1006.85 666.699C1006.85 692.713 999.446 710.8 986.682 724.916C973.766 739.2 955.095 749.718 931.927 759.984C921.208 764.734 909.562 769.408 897.2 774.37C857.033 790.492 809.298 809.651 761.193 844.302C729.812 828.473 698.876 815.929 670.18 804.458C668.413 803.752 666.655 803.049 664.905 802.351C637.524 791.416 612.415 781.388 590.835 770.214C567.887 758.333 549.283 745.325 536.405 728.925C523.608 712.627 516.281 692.743 516.281 666.699C516.281 614.24 543.569 556.782 588.119 512.359C632.622 467.982 693.969 437.001 761.563 437.001C829.157 437.001 890.505 467.982 935.008 512.359C979.557 556.782 1006.85 614.24 1006.85 666.699Z" fill="#AF70FF" stroke="#070C8D" stroke-width="8"/>
<path d="M570.169 641.255C575.846 623.594 663.52 539.073 701.673 673.192C712.719 720.098 655.121 714.436 668.888 757.866C682.655 801.296 756.065 773.585 756.065 773.585" stroke="#070C8D" stroke-width="8"/>
<path d="M560.168 625.059C573.636 638.021 653.47 518.59 701.671 664.996C712.717 711.903 651.034 713.657 660.602 757.804" stroke="#070C8D" stroke-width="8"/>
<path d="M584.729 1041.33C584.729 988.682 590.009 951.58 599.157 922.709C608.285 893.904 621.326 873.09 637.163 853.065C644.554 843.719 652.586 834.518 661.114 824.751C688.356 793.547 720.648 756.558 753.218 690.563C774.051 720.127 794.563 743.853 813.629 765.602C814.848 766.992 816.06 768.373 817.265 769.747C836.142 791.261 853.418 810.949 868.276 832.903C899.696 879.33 920.482 936.171 920.482 1041.33C920.482 1146.82 906.228 1255.22 878.084 1337.1C864.008 1378.05 846.541 1412.12 825.851 1435.87C805.203 1459.58 781.581 1472.79 754.978 1472.79C728.364 1472.79 704.436 1459.57 683.337 1435.84C662.202 1412.07 644.148 1378 629.483 1337.05C600.162 1255.18 584.729 1146.79 584.729 1041.33Z" fill="#AF70FF" stroke="#070C8D" stroke-width="8"/>
<path d="M658.126 765.987C658.126 738.207 700.047 724.597 753.318 744.53C832.399 718.277 854.076 738.207 854.076 765.987C854.076 793.766 807.428 841.161 753.318 841.161C699.207 841.161 658.126 793.766 658.126 765.987Z" fill="#AF70FF"/>
<path d="M586.652 1286.02C586.652 1135.96 657.745 1012.34 743.873 1012.34C830.001 1012.34 925.841 1119.95 925.841 1270.01C925.841 1420.08 846.515 1482.56 760.387 1482.56C674.259 1482.56 586.652 1436.09 586.652 1286.02Z" fill="#AF70FF"/>
<path d="M680.849 1483.93H867.057" stroke="#070C8D" stroke-width="8"/>
<path d="M689.47 769.296C689.47 752.976 696.707 741.363 708.533 733.654C720.557 725.817 737.522 721.921 756.756 721.921C775.991 721.921 792.956 725.817 804.979 733.654C816.806 741.363 824.043 752.976 824.043 769.296C824.043 785.921 816.519 804.295 804.145 818.533C791.784 832.755 774.986 842.408 756.756 842.408C738.526 842.408 721.728 832.755 709.368 818.533C696.993 804.295 689.47 785.921 689.47 769.296Z" fill="#AF70FF" stroke="#070C8D" stroke-width="8"/>
<path d="M849.905 747.058C849.905 774.837 806.71 795.005 759.553 775.072C689.546 801.325 660.252 778.286 660.252 750.506C660.252 722.727 721.275 658.838 754.483 658.838C802.384 658.838 849.905 719.278 849.905 747.058Z" fill="#AF70FF"/>
<path d="M945.931 641.256C940.254 623.595 852.58 539.074 814.427 673.193C803.381 720.099 860.979 714.437 847.212 757.867C833.445 801.297 760.034 773.586 760.034 773.586C760.034 773.586 670.581 811.992 658.894 757.375C652.542 727.694 702.798 706.997 702.798 678.613" stroke="#070C8D" stroke-width="8"/>
<path d="M955.931 625.06C942.464 638.022 862.63 518.591 814.428 664.997C803.382 711.903 856.78 705.524 847.212 749.671C837.644 793.818 760.521 773.1 760.521 773.1C760.521 773.1 666.046 805.384 658.894 749.179C655.063 719.068 707.926 720.281 697.419 675.58" stroke="#070C8D" stroke-width="8"/>
<path d="M945.929 641.257C940.253 623.596 852.579 539.075 814.426 673.194C803.38 720.1 860.978 714.438 847.211 757.868C833.443 801.298 760.033 773.587 760.033 773.587" stroke="#070C8D" stroke-width="8"/>
<path d="M955.932 625.06C942.464 638.022 862.63 518.591 814.429 664.997C803.383 711.903 856.781 705.524 847.213 749.671" stroke="#070C8D" stroke-width="8"/>
<rect x="563.592" y="579.573" width="382.338" height="32.2402" fill="#AF70FF"/>
<ellipse cx="862.46" cy="656.424" rx="35.1451" ry="41.5123" fill="#070C8D"/>
<ellipse cx="35.1451" cy="41.5123" rx="35.1451" ry="41.5123" transform="matrix(-1 0 0 1 688.211 614.912)" fill="#070C8D"/>
<circle cx="956.076" cy="1316.31" r="10.8028" transform="rotate(-20.2833 956.076 1316.31)" fill="#070C8D" stroke="#070C8D" stroke-width="8"/>
<circle cx="723.455" cy="540.438" r="7.75597" fill="#070C8D" stroke="#070C8D" stroke-width="8"/>
<circle cx="887.159" cy="1170.63" r="11.756" transform="rotate(-29.2086 887.159 1170.63)" fill="#070C8D"/>
<circle cx="744.858" cy="606.094" r="5.7191" fill="#070C8D"/>
<circle cx="944.288" cy="1349.46" r="5.7191" transform="rotate(-20.2833 944.288 1349.46)" fill="#070C8D"/>
<circle cx="545.745" cy="643.321" r="5.7191" fill="#070C8D"/>
<circle cx="7.16553" cy="7.16553" r="7.16553" transform="matrix(-1 0 0 1 975.857 680.507)" fill="#070C8D"/>
<circle cx="16.478" cy="16.478" r="12.478" transform="matrix(-1 0 0 1 1008.81 644.188)" fill="#070C8D" stroke="#070C8D" stroke-width="8"/>
<circle cx="742.242" cy="462.686" r="19.5739" fill="#070C8D" stroke="#070C8D" stroke-width="8"/>
<circle cx="955.699" cy="1164.14" r="19.5739" transform="rotate(-20.2833 955.699 1164.14)" fill="#070C8D" stroke="#070C8D" stroke-width="8"/>
<circle cx="792.234" cy="521.727" r="28.4669" fill="#070C8D" stroke="#070C8D" stroke-width="8"/>
<circle cx="14.8028" cy="14.8028" r="10.8028" transform="matrix(-0.850358 -0.526205 -0.526205 0.850358 562.348 1321.37)" fill="#070C8D" stroke="#070C8D" stroke-width="8"/>
<circle cx="9.95666" cy="9.95666" r="5.95666" transform="matrix(-1 0 0 1 628.587 918.636)" fill="#070C8D" stroke="#070C8D" stroke-width="8"/>
<circle cx="11.756" cy="11.756" r="7.75597" transform="matrix(-0.850358 -0.526205 -0.526205 0.850358 579.775 1194.42)" fill="#070C8D" stroke="#070C8D" stroke-width="8"/>
<circle cx="5.7191" cy="5.7191" r="5.7191" transform="matrix(-0.850358 -0.526205 -0.526205 0.850358 554.806 1359.15)" fill="#070C8D"/>
<circle cx="20.2931" cy="20.2931" r="16.2931" transform="matrix(-0.850358 -0.526205 -0.526205 0.850358 588.103 1133.19)" fill="#070C8D" stroke="#070C8D" stroke-width="8"/>
<path d="M635.767 1087.42C635.767 981.676 693.433 998.691 752.606 908.168C812.508 972.137 869.445 981.676 869.445 1087.42C869.445 1193.17 817.135 1317.25 752.606 1317.25C688.078 1317.25 635.767 1193.17 635.767 1087.42Z" fill="white"/>
<path d="M632.125 958.467L588.921 1036.76C586.087 1041.89 584.719 1047.71 584.966 1053.57L590.007 1172.9C590.105 1175.22 590.456 1177.53 591.053 1179.77L663.821 1453.49C665.937 1461.45 673.144 1466.99 681.38 1466.99C691.525 1466.99 699.705 1458.68 699.547 1448.54L692.138 973.429C691.627 940.63 647.974 929.747 632.125 958.467Z" fill="#AF70FF" stroke="#070C8D" stroke-width="8"/>
<path d="M734.066 853.115L719.862 942.888L663.322 1010.74L592.669 1139.9L589.02 1051.17L589.02 1020.17L651.018 917.272L734.066 853.115Z" fill="#AF70FF"/>
<path d="M873.864 956.604L914.749 1020.62C918.155 1025.95 919.903 1032.17 919.773 1038.5L917.019 1172.55C916.967 1175.1 916.608 1177.64 915.952 1180.11L843.273 1453.49C841.157 1461.45 833.95 1466.99 825.713 1466.99C815.568 1466.99 807.389 1458.68 807.546 1448.54L814.899 973.334C815.39 941.608 856.785 929.863 873.864 956.604Z" fill="#AF70FF" stroke="#070C8D" stroke-width="8"/>
<path d="M996.96 873.989C997.504 798.256 845.367 775.782 816.847 750.762" stroke="#070C8D" stroke-width="8"/>
<path d="M903.132 853.593C912.167 811.401 829.874 781.32 816.846 764.071" stroke="#070C8D" stroke-width="8"/>
<path d="M512.044 875.989C511.5 800.256 663.637 777.782 692.157 752.762" stroke="#070C8D" stroke-width="8"/>
<path d="M605.872 855.593C596.836 813.401 679.13 783.32 692.158 766.071" stroke="#070C8D" stroke-width="8"/>
<path d="M635.082 1465.36C635.082 1435.9 662.564 1411.15 697.624 1411.15C732.685 1411.15 760.166 1435.9 760.166 1465.36C760.166 1472.76 758.46 1478.17 755.649 1482.23C752.83 1486.3 748.663 1489.35 743.161 1491.6C731.946 1496.2 716.07 1497.15 697.624 1497.15C679.179 1497.15 663.303 1496.2 652.087 1491.6C646.585 1489.35 642.419 1486.3 639.6 1482.23C636.789 1478.17 635.082 1472.76 635.082 1465.36Z" fill="#AF70FF" stroke="#070C8D" stroke-width="8"/>
<path d="M698.099 1501.01V1432.98" stroke="#070C8D" stroke-width="8"/>
<path d="M666.98 1497.01L666.98 1451.51" stroke="#070C8D" stroke-width="8"/>
<path d="M728.503 1497.01L728.503 1451.51" stroke="#070C8D" stroke-width="8"/>
<path d="M762.217 1465.36C762.217 1435.9 789.699 1411.15 824.759 1411.15C859.819 1411.15 887.301 1435.9 887.301 1465.36C887.301 1472.76 885.594 1478.17 882.783 1482.23C879.964 1486.3 875.798 1489.35 870.296 1491.6C859.08 1496.2 843.204 1497.15 824.759 1497.15C806.314 1497.15 790.438 1496.2 779.222 1491.6C773.72 1489.35 769.554 1486.3 766.735 1482.23C763.924 1478.17 762.217 1472.76 762.217 1465.36Z" fill="#AF70FF" stroke="#070C8D" stroke-width="8"/>
<path d="M825.233 1501.01V1432.98" stroke="#070C8D" stroke-width="8"/>
<path d="M789.575 862.486L911.453 962.722L916.013 1014.53L915.563 1042.23L823.97 971.934L796.314 947.192L789.575 862.486Z" fill="#AF70FF"/>
<path d="M793.996 1497.01L793.996 1451.51" stroke="#070C8D" stroke-width="8"/>
<path d="M855.52 1497.01L855.52 1451.51" stroke="#070C8D" stroke-width="8"/>
<rect x="645.18" y="898.413" width="8" height="41.979" fill="#070C8D"/>
<rect x="533.639" y="658.424" width="8" height="32.6917" fill="#070C8D"/>
<rect x="953.02" y="643.321" width="12.1357" height="21.6748" fill="#070C8D"/>
<rect x="685.471" y="466.071" width="14.3711" height="46.4141" fill="#070C8D"/>
<rect x="810.158" y="444.949" width="8" height="37.4731" fill="#070C8D"/>
<rect x="754.781" y="558.346" width="8" height="33.6162" fill="#070C8D"/>
<rect x="525.307" y="1216.66" width="8.97266" height="46.4141" fill="#070C8D"/>
<rect x="972.976" y="1207.84" width="8" height="76.0288" fill="#070C8D"/>
<rect x="554.806" y="1267.32" width="10.0683" height="28.043" fill="#070C8D"/>
<rect x="932.025" y="1095.03" width="10.0683" height="28.043" fill="#070C8D"/>
<rect x="964.095" y="1347.53" width="10.0683" height="28.043" fill="#070C8D"/>
<circle cx="14.8906" cy="14.8906" r="10.8906" transform="matrix(-1 0 0 1 678.259 847.595)" fill="#070C8D" stroke="#070C8D" stroke-width="8"/>
<circle cx="881.806" cy="926.93" r="11.9714" fill="#070C8D" stroke="#070C8D" stroke-width="8"/>
<rect x="845.033" y="856.909" width="8" height="41.979" fill="#070C8D"/>
<path d="M758.456 759.37L752.01 760.078C751.705 755.145 750.756 751.804 749.163 750.055C747.569 748.307 745.126 747.613 741.834 747.975L734.746 748.754C730.791 749.189 727.581 748.81 725.118 747.616C722.632 746.397 720.699 744.542 719.318 742.052C717.935 739.534 716.929 736.486 716.299 732.909C715.669 729.332 715.221 727.671 714.955 723.365L725.153 721.104C725.361 724.469 725.851 724.718 726.623 726.414C727.372 728.083 728.45 729.156 729.857 729.633C731.243 730.112 732.973 730.238 735.047 730.01L744.411 728.98C746.036 728.802 747.611 729.031 749.136 729.667C750.639 730.306 752.024 731.646 753.291 733.689C754.537 735.734 755.615 739.871 756.526 743.819C757.416 747.77 758.059 752.953 758.456 759.37ZM796.126 714.442C796.392 718.748 796.434 720.454 796.251 724.121C796.069 727.787 795.45 731.013 794.395 733.799C793.339 736.557 791.659 738.809 789.356 740.555C787.073 742.27 783.953 743.345 779.998 743.78L772.878 744.563C769.586 744.925 767.261 746.142 765.903 748.215C764.546 750.288 764.02 753.791 764.325 758.724L757.879 759.433C757.482 753.017 757.491 747.761 757.906 743.668C758.298 739.576 758.995 735.244 759.994 732.952C760.972 730.663 762.174 729.038 763.6 728.077C765.004 727.119 766.529 726.549 768.176 726.368L777.54 725.339C779.593 725.113 781.273 724.612 782.582 723.837C783.911 723.059 784.843 721.765 785.377 719.955C785.93 718.114 786.103 717.792 785.895 714.427L796.126 714.442ZM764.325 758.724L752.01 760.078L751.061 744.721L757.218 744.045L763.376 743.368L764.325 758.724Z" fill="#070C8D"/>
<path d="M773.929 731.249L741.086 733.488L758.82 752.922L773.929 731.249Z" fill="#070C8D"/>
<path d="M474.621 610.549H1030.59V709.894C1030.59 709.894 914.51 727.884 846.83 709.894C807.465 699.43 796.545 669.132 754.806 668.908C712.559 668.682 701.175 699.426 661.274 709.894C592.43 727.954 474.621 709.894 474.621 709.894V610.549Z" fill="#070C8D"/>
<mask id="mask1_65_173" style="mask-type:alpha" maskUnits="userSpaceOnUse" x="474" y="610" width="557" height="108">
<path d="M474.621 610.549H1030.59V709.894C1030.59 709.894 914.51 727.884 846.83 709.894C807.465 699.43 796.545 669.132 754.806 668.908C712.559 668.682 701.175 699.426 661.274 709.894C592.43 727.954 474.621 709.894 474.621 709.894V610.549Z" fill="#070C8D"/>
</mask>
<g mask="url(#mask1_65_173)">
<rect width="40.9877" height="353.31" transform="matrix(0.916899 0.399119 -0.607983 0.79395 639.014 499.256)" fill="#AF70FF"/>
<rect width="22.3614" height="353.31" transform="matrix(0.916899 0.399119 -0.607983 0.79395 984.491 509.432)" fill="#F5F5F5"/>
<rect width="18.5924" height="353.31" transform="matrix(0.916899 0.399119 -0.607983 0.79395 689.428 520.27)" fill="white"/>
<rect width="18.5924" height="353.31" transform="matrix(0.916899 0.399119 -0.607983 0.79395 1017.83 523.011)" fill="#AF70FF"/>
<rect width="8.94246" height="353.31" transform="matrix(0.916899 0.399119 -0.607983 0.79395 706.475 539.652)" fill="#AF70FF"/>
<rect width="8.94246" height="353.31" transform="matrix(0.916899 0.399119 -0.607983 0.79395 1034.87 542.394)" fill="white"/>
</g>
<path d="M474.621 607.549H471.621V610.549V709.894V712.469L474.167 712.859L474.621 709.894C474.167 712.859 474.167 712.859 474.169 712.86L474.173 712.86L474.191 712.863L474.258 712.873L474.518 712.912C474.747 712.947 475.086 712.997 475.529 713.061C476.417 713.19 477.725 713.377 479.411 713.607C482.785 714.068 487.676 714.706 493.758 715.414C505.919 716.829 522.855 718.528 541.953 719.661C580.051 721.921 627.122 721.955 662.035 712.796C679.887 708.113 692.274 699.443 703.687 691.456C705.426 690.239 707.143 689.037 708.854 687.868C721.772 679.035 734.565 671.8 754.79 671.908C774.767 672.015 787.325 679.25 800.001 688.027C801.64 689.163 803.286 690.328 804.953 691.508C816.187 699.462 828.376 708.093 846.059 712.793C880.397 721.921 926.751 721.886 964.271 719.635C983.081 718.506 999.765 716.814 1011.75 715.403C1017.74 714.698 1022.56 714.063 1025.88 713.604C1027.54 713.374 1028.83 713.188 1029.71 713.06C1029.93 713.027 1030.12 712.999 1030.29 712.974C1030.45 712.949 1030.59 712.928 1030.7 712.911L1030.96 712.872L1031.03 712.862L1031.04 712.86L1031.05 712.859C1031.05 712.859 1031.05 712.859 1030.59 709.894L1031.05 712.859L1033.59 712.465V709.894V610.549V607.549H1030.59H474.621Z" stroke="#070C8D" stroke-width="6"/>
</svg>
